<?xml version="1.0" encoding="UTF-8"?>
<svg id="Layer_1" xmlns="http://www.w3.org/2000/svg" xmlns:xlink="http://www.w3.org/1999/xlink" version="1.1" viewBox="0 0 38.81 42.16">
  <!-- Generator: Adobe Illustrator 29.6.1, SVG Export Plug-In . SVG Version: 2.1.1 Build 9)  -->
  <defs>
    <style>
      .st0 {
        fill: none;
      }

      .st1 {
        fill: #1d51a3;
      }

      .st2 {
        clip-path: url(#clippath-1);
      }

      .st3 {
        fill: #fff;
      }

      .st4 {
        clip-path: url(#clippath);
      }
    </style>
    <clipPath id="clippath">
      <rect class="st0" x="-40.82" y="-39.15" width="120.46" height="120.46"/>
    </clipPath>
    <clipPath id="clippath-1">
      <rect class="st0" x="-40.82" y="-39.15" width="120.46" height="120.46"/>
    </clipPath>
  </defs>
  <rect class="st1" x="9.79" y="4.77" width="19.23" height="19.07"/>
  <g class="st4">
    <g>
      <path class="st3" d="M6.94,38.46l-.2-.68h-1.19l-.2.68h-.96l1.23-3.54h1.08l1.23,3.54s-.99,0-.99,0ZM6.14,35.81l-.37,1.22h.73s-.36-1.22-.36-1.22Z"/>
      <g class="st2">
        <g>
          <path class="st3" d="M8.33,38.46v-3.54h1.39c.58,0,1.03.15,1.33.44s.46.72.46,1.29-.16,1.03-.48,1.34-.77.47-1.36.47c0,0-1.34,0-1.34,0ZM9.68,37.66c.56,0,.84-.33.84-.98,0-.32-.07-.56-.2-.72-.13-.16-.33-.24-.6-.24h-.45v1.93h.41Z"/>
          <polygon class="st3" points="14.23 38.46 12.96 36.44 12.96 38.46 12.05 38.46 12.05 34.92 12.89 34.92 14.16 36.95 14.16 34.92 15.06 34.92 15.06 38.46 14.23 38.46"/>
          <path class="st3" d="M17.34,38.55c-.36,0-.67-.07-.93-.22-.26-.15-.46-.36-.59-.64-.14-.28-.2-.6-.2-.98,0-.59.16-1.05.47-1.38.31-.33.74-.5,1.29-.5.36,0,.67.07.93.22.26.15.46.36.59.64.14.28.2.6.2.98,0,.59-.16,1.05-.47,1.38-.31.33-.74.49-1.29.49M17.35,37.73c.25,0,.44-.09.57-.26.13-.18.19-.43.19-.78,0-.69-.25-1.04-.75-1.04-.25,0-.44.09-.57.26-.13.17-.19.43-.19.78s.06.6.19.78c.13.17.31.26.56.26"/>
          <path class="st3" d="M22.79,37.17c-.03.43-.18.77-.46,1.02-.28.24-.65.37-1.11.37-.53,0-.95-.16-1.25-.48s-.44-.77-.44-1.35.15-1.05.45-1.38c.3-.33.72-.5,1.26-.5.42,0,.76.1,1.01.31s.41.52.48.93l-.95.11c-.04-.19-.1-.33-.2-.41-.09-.08-.22-.13-.38-.13-.45,0-.68.35-.68,1.04s.23,1.04.69,1.04c.17,0,.31-.05.41-.14.1-.1.16-.24.19-.42h.98Z"/>
          <path class="st3" d="M26.58,37.21h-.56v-.77h1.44v1.61c-.2.16-.43.29-.7.37-.26.09-.54.13-.82.13-.55,0-.98-.16-1.28-.48s-.45-.77-.45-1.36c0-.4.07-.74.21-1.02s.34-.5.59-.64c.26-.15.56-.22.92-.22.42,0,.75.1,1.01.3.26.2.42.48.48.85l-.95.09c-.04-.15-.1-.26-.19-.33s-.21-.11-.36-.11c-.24,0-.43.09-.54.26-.12.17-.18.44-.18.79s.07.64.2.81.34.25.63.25c.21,0,.39-.04.55-.13v-.41h0Z"/>
          <path class="st3" d="M30.28,38.46l-.2-.68h-1.19l-.2.68h-.96l1.23-3.54h1.08l1.23,3.54h-.99ZM29.48,35.81l-.37,1.22h.73l-.36-1.22Z"/>
          <path class="st3" d="M32.62,37.02c-.4-.08-.7-.2-.88-.37-.18-.17-.27-.41-.27-.71,0-.36.12-.63.37-.82s.6-.29,1.05-.29.79.09,1.05.28c.25.18.4.45.44.8l-.92.09c-.03-.15-.09-.26-.18-.32-.09-.07-.22-.1-.38-.1-.15,0-.27.03-.35.08-.08.05-.12.13-.12.23,0,.08.03.15.09.2.06.05.16.09.3.11l.48.09c.39.08.68.2.87.38s.28.42.28.72c0,.37-.13.66-.39.86s-.63.3-1.1.3-.85-.1-1.11-.31c-.26-.21-.4-.52-.43-.94h.95c.02.17.08.29.19.37s.25.12.45.12c.16,0,.29-.03.38-.09s.13-.14.13-.25c0-.09-.03-.17-.1-.22-.06-.05-.16-.09-.29-.11l-.47-.09h-.04Z"/>
          <path class="st3" d="M8.79,24.64h21.23V3.61H8.79s0,21.03,0,21.03ZM19.83,18.17c-.25,1.85-2.61,3.95-5.19,4.32-.6.09-.85.07-1.94.07h-1.8V5.67h17.03v5.45s-2.68-3.82-7.68-3.36c-1.1.09-2.07.46-2.64.72-1.12.53-1.89,1.2-2.21,1.58,0,0-.02.02-.03.03-1.2.78-1.55,1.53-1.55,1.53-.73,1.61.42,2.81.42,2.81-.2-.73.29-1.12.3-1.13.86.23,1.98.22,2.06.22.05.02.09.03.13.04,2.29.48,3.48,2.4,3.1,4.59M27.8,22.57h-4.13c.75-.76,1.31-1.69,1.54-2.78,1.04-4.88-3.12-6.81-4.06-7.07,4.62.99,7.43,5.57,6.65,9.85M27.93,13.54s-2.44-3.49-7.02-3.35c.04.17.05.34,0,.52-.14.65-.81,1.06-1.51.91-.52-.11-.91-.5-1.02-.96-.72.26-1.19.53-1.19.53,1.59-1.11,3.61-1.73,6.01-1.41,2.15.24,4.02,1.55,4.72,2.25,0,0,0,1.51,0,1.51Z"/>
          <path class="st3" d="M5.37,33.05c.19,0,.29-.09.29-.28v-2.82h.88v2.84c0,.33-.08.57-.23.74-.16.17-.39.25-.69.25-.19,0-.4-.03-.65-.1l.13-.67c.13.03.22.04.28.04M5.73,28.83h.73v.68h-.73v-.68Z"/>
          <polygon class="st3" points="7.09 28.8 7.97 28.8 7.97 31.73 8.61 31.73 8.61 32.52 7.09 32.52 7.09 28.8"/>
          <rect class="st3" x="8.45" y="31.73" width="2.14" height=".79"/>
          <path class="st3" d="M10.44,31.73h.6v-.53c0-.44.1-.76.31-.97.2-.21.52-.32.94-.32.36,0,.64.08.84.24.2.16.33.42.39.77l-.85.09c-.02-.15-.07-.24-.12-.3-.06-.05-.14-.08-.26-.08-.13,0-.23.04-.28.13-.05.08-.08.23-.08.43v.54h1.7v.79h-3.18v-.79h-.01ZM11.91,28.83h.73v.68h-.73v-.68Z"/>
          <polygon class="st3" points="13.47 31.73 14.1 31.73 14.1 28.8 14.98 28.8 14.98 31.73 15.62 31.73 15.62 32.52 13.47 32.52 13.47 31.73"/>
          <polygon class="st3" points="15.46 31.73 16.1 31.73 16.1 28.8 16.98 28.8 16.98 32.52 15.46 32.52 15.46 31.73"/>
          <rect class="st3" x="25.96" y="31.72" width="2.14" height=".79"/>
          <rect class="st3" x="28.58" y="28.79" width=".88" height=".82"/>
          <path class="st3" d="M18.93,32.2c-.25-.21-.37-.55-.37-1,0-.24.05-.46.16-.65s.26-.34.47-.45c.21-.11.45-.18.74-.19l.1.76c-.22.02-.37.08-.46.16s-.14.21-.14.37c0,.35.19.52.58.52h1.5v-2.93h.88v3.72h-2.32c-.52,0-.91-.11-1.15-.32M20.27,30.33h.11v-.23c0-.13.04-.22.11-.29s.17-.11.3-.11.22.03.29.09.11.15.13.29l-.27.04c0-.1-.06-.15-.14-.15-.1,0-.15.06-.15.17v.2h.55v.28h-.94v-.28h0Z"/>
          <polyline class="st3" points="29.46 29.86 29.46 32.51 27.94 32.51 27.94 31.72 28.58 31.72 28.58 29.86 29.46 29.86"/>
          <path class="st3" d="M29.91,31.72h1.6v-.32c0-.49-.21-.73-.64-.73-.18,0-.38.05-.6.14l-.22-.72c.13-.06.28-.1.44-.13s.32-.05.48-.05c.27,0,.52.06.73.17s.38.27.5.48c.12.21.18.45.18.73v1.23h-2.48v-.79h.01Z"/>
          <path class="st3" d="M32.91,28.23h.11v-.23c0-.12.04-.22.11-.29s.17-.11.3-.11.22.03.29.09.11.15.13.29l-.27.04c0-.1-.06-.15-.14-.15-.1,0-.15.06-.15.17v.2h.55v.28h-.94v-.28h0ZM32.94,28.79h.88v3.72h-.88v-3.72Z"/>
          <path class="st3" d="M25.49,31.72v-.57c0-.42-.11-.73-.32-.95-.21-.22-.52-.33-.93-.33-.26,0-.49.05-.68.16s-.34.26-.44.45c-.1.19-.15.41-.15.66,0,.9.55,1.36,1.66,1.37,0,.2-.03.35-.1.44,0,.01-.02.02-.03.03l.43.68c.09-.05.17-.1.24-.17.21-.21.32-.54.32-.98h.62v-.79s-.62,0-.62,0ZM24.63,31.72h-.17c-.22,0-.37-.05-.47-.15-.1-.1-.15-.25-.15-.45,0-.16.03-.29.1-.38s.17-.13.3-.13c.14,0,.24.03.3.1.06.07.09.18.09.34,0,0,0,.67,0,.67Z"/>
        </g>
      </g>
    </g>
  </g>
</svg>